<svg width="600" height="150" viewBox="0 0 600 150" fill="none" xmlns="http://www.w3.org/2000/svg">
<rect x="150" width="150" height="150" fill="white"/>
<rect x="150" width="150" height="150" fill="#F78F2E" fill-opacity="0.25"/>
<rect width="150" height="150" fill="#F78F2E"/>
<rect x="450.5" y="0.5" width="149" height="149" fill="white" stroke="black"/>
<rect x="300" width="150" height="150" fill="#838383"/>
<path d="M19.1364 87L22.9545 63.7273H25.2273L21.4091 87H19.1364ZM8.54545 80.5455L8.90909 78.2727H26.2727L25.9091 80.5455H8.54545ZM10.9545 87L14.7727 63.7273H17.0455L13.2273 87H10.9545ZM9.90909 72.4545L10.2727 70.1818H27.6364L27.2727 72.4545H9.90909ZM31.0057 87V63.7273H44.9602V66.2273H33.8239V74.0909H43.9148V76.5909H33.8239V87H31.0057ZM50.1051 87L60.5142 66.4091V66.2273H48.5142V63.7273H63.4233V66.3636L53.0597 87H50.1051ZM74.6449 87.3182C73.0843 87.3182 71.7055 87.0417 70.5085 86.4886C69.3191 85.928 68.3911 85.1591 67.7244 84.1818C67.0578 83.197 66.7282 82.0758 66.7358 80.8182C66.7282 79.8333 66.9214 78.9242 67.3153 78.0909C67.7093 77.25 68.2472 76.5492 68.929 75.9886C69.6184 75.4205 70.3873 75.0606 71.2358 74.9091V74.7727C70.1222 74.4848 69.2358 73.8598 68.5767 72.8977C67.9176 71.928 67.5919 70.8258 67.5994 69.5909C67.5919 68.4091 67.8911 67.3523 68.4972 66.4205C69.1032 65.4886 69.9366 64.7538 70.9972 64.2159C72.0653 63.678 73.2813 63.4091 74.6449 63.4091C75.9934 63.4091 77.1979 63.678 78.2585 64.2159C79.3191 64.7538 80.1525 65.4886 80.7585 66.4205C81.3722 67.3523 81.6828 68.4091 81.6903 69.5909C81.6828 70.8258 81.3456 71.928 80.679 72.8977C80.0199 73.8598 79.1449 74.4848 78.054 74.7727V74.9091C78.8949 75.0606 79.6525 75.4205 80.3267 75.9886C81.0009 76.5492 81.5388 77.25 81.9403 78.0909C82.3419 78.9242 82.5464 79.8333 82.554 80.8182C82.5464 82.0758 82.2055 83.197 81.5312 84.1818C80.8646 85.1591 79.9366 85.928 78.7472 86.4886C77.5653 87.0417 76.1979 87.3182 74.6449 87.3182ZM74.6449 84.8182C75.6979 84.8182 76.607 84.6477 77.3722 84.3068C78.1373 83.9659 78.7282 83.4848 79.1449 82.8636C79.5616 82.2424 79.7737 81.5152 79.7812 80.6818C79.7737 79.803 79.5464 79.0265 79.0994 78.3523C78.6525 77.678 78.0426 77.1477 77.2699 76.7614C76.5047 76.375 75.6297 76.1818 74.6449 76.1818C73.6525 76.1818 72.7661 76.375 71.9858 76.7614C71.2131 77.1477 70.6032 77.678 70.1562 78.3523C69.7169 79.0265 69.5009 79.803 69.5085 80.6818C69.5009 81.5152 69.7017 82.2424 70.1108 82.8636C70.5275 83.4848 71.1222 83.9659 71.8949 84.3068C72.6676 84.6477 73.5843 84.8182 74.6449 84.8182ZM74.6449 73.7727C75.4782 73.7727 76.2169 73.6061 76.8608 73.2727C77.5123 72.9394 78.0237 72.4735 78.3949 71.875C78.7661 71.2765 78.9555 70.5758 78.9631 69.7727C78.9555 68.9848 78.7699 68.2992 78.4062 67.7159C78.0426 67.125 77.5388 66.6705 76.8949 66.3523C76.2509 66.0265 75.5009 65.8636 74.6449 65.8636C73.7737 65.8636 73.0123 66.0265 72.3608 66.3523C71.7093 66.6705 71.2055 67.125 70.8494 67.7159C70.4934 68.2992 70.3191 68.9848 70.3267 69.7727C70.3191 70.5758 70.4972 71.2765 70.8608 71.875C71.232 72.4735 71.7434 72.9394 72.3949 73.2727C73.0464 73.6061 73.7964 73.7727 74.6449 73.7727ZM87.3182 87V63.7273H101.273V66.2273H90.1364V74.0909H100.227V76.5909H90.1364V87H87.3182ZM105.69 87V84.9545L113.372 76.5455C114.274 75.5606 115.016 74.7045 115.599 73.9773C116.183 73.2424 116.615 72.553 116.895 71.9091C117.183 71.2576 117.327 70.5758 117.327 69.8636C117.327 69.0455 117.13 68.3371 116.736 67.7386C116.349 67.1402 115.819 66.678 115.145 66.3523C114.471 66.0265 113.713 65.8636 112.872 65.8636C111.978 65.8636 111.198 66.0492 110.531 66.4205C109.872 66.7841 109.361 67.2955 108.997 67.9545C108.641 68.6136 108.463 69.3864 108.463 70.2727H105.781C105.781 68.9091 106.096 67.7121 106.724 66.6818C107.353 65.6515 108.209 64.8485 109.293 64.2727C110.384 63.697 111.607 63.4091 112.963 63.4091C114.327 63.4091 115.535 63.697 116.588 64.2727C117.641 64.8485 118.467 65.625 119.065 66.6023C119.664 67.5795 119.963 68.6667 119.963 69.8636C119.963 70.7197 119.808 71.5568 119.497 72.375C119.194 73.1856 118.664 74.0909 117.906 75.0909C117.156 76.0833 116.115 77.2955 114.781 78.7273L109.554 84.3182V84.5H120.372V87H105.69ZM125.474 87V63.7273H139.52V66.2273H128.293V74.0909H138.793V76.5909H128.293V84.5H139.702V87H125.474Z" fill="black"/>
<path d="M169.246 75L173.064 51.7273H175.337L171.518 75H169.246ZM158.655 68.5455L159.018 66.2727H176.382L176.018 68.5455H158.655ZM161.064 75L164.882 51.7273H167.155L163.337 75H161.064ZM160.018 60.4545L160.382 58.1818H177.746L177.382 60.4545H160.018ZM181.115 75V51.7273H195.07V54.2273H183.933V62.0909H194.024V64.5909H183.933V75H181.115ZM200.214 75L210.624 54.4091V54.2273H198.624V51.7273H213.533V54.3636L203.169 75H200.214ZM224.754 75.3182C223.194 75.3182 221.815 75.0417 220.618 74.4886C219.429 73.928 218.5 73.1591 217.834 72.1818C217.167 71.197 216.838 70.0758 216.845 68.8182C216.838 67.8333 217.031 66.9242 217.425 66.0909C217.819 65.25 218.357 64.5492 219.038 63.9886C219.728 63.4205 220.497 63.0606 221.345 62.9091V62.7727C220.232 62.4848 219.345 61.8598 218.686 60.8977C218.027 59.928 217.701 58.8258 217.709 57.5909C217.701 56.4091 218 55.3523 218.607 54.4205C219.213 53.4886 220.046 52.7538 221.107 52.2159C222.175 51.678 223.391 51.4091 224.754 51.4091C226.103 51.4091 227.307 51.678 228.368 52.2159C229.429 52.7538 230.262 53.4886 230.868 54.4205C231.482 55.3523 231.792 56.4091 231.8 57.5909C231.792 58.8258 231.455 59.928 230.788 60.8977C230.129 61.8598 229.254 62.4848 228.163 62.7727V62.9091C229.004 63.0606 229.762 63.4205 230.436 63.9886C231.11 64.5492 231.648 65.25 232.05 66.0909C232.451 66.9242 232.656 67.8333 232.663 68.8182C232.656 70.0758 232.315 71.197 231.641 72.1818C230.974 73.1591 230.046 73.928 228.857 74.4886C227.675 75.0417 226.307 75.3182 224.754 75.3182ZM224.754 72.8182C225.807 72.8182 226.716 72.6477 227.482 72.3068C228.247 71.9659 228.838 71.4848 229.254 70.8636C229.671 70.2424 229.883 69.5152 229.891 68.6818C229.883 67.803 229.656 67.0265 229.209 66.3523C228.762 65.678 228.152 65.1477 227.379 64.7614C226.614 64.375 225.739 64.1818 224.754 64.1818C223.762 64.1818 222.875 64.375 222.095 64.7614C221.322 65.1477 220.713 65.678 220.266 66.3523C219.826 67.0265 219.61 67.803 219.618 68.6818C219.61 69.5152 219.811 70.2424 220.22 70.8636C220.637 71.4848 221.232 71.9659 222.004 72.3068C222.777 72.6477 223.694 72.8182 224.754 72.8182ZM224.754 61.7727C225.588 61.7727 226.326 61.6061 226.97 61.2727C227.622 60.9394 228.133 60.4735 228.504 59.875C228.875 59.2765 229.065 58.5758 229.072 57.7727C229.065 56.9848 228.879 56.2992 228.516 55.7159C228.152 55.125 227.648 54.6705 227.004 54.3523C226.36 54.0265 225.61 53.8636 224.754 53.8636C223.883 53.8636 223.122 54.0265 222.47 54.3523C221.819 54.6705 221.315 55.125 220.959 55.7159C220.603 56.2992 220.429 56.9848 220.436 57.7727C220.429 58.5758 220.607 59.2765 220.97 59.875C221.341 60.4735 221.853 60.9394 222.504 61.2727C223.156 61.6061 223.906 61.7727 224.754 61.7727ZM237.428 75V51.7273H251.382V54.2273H240.246V62.0909H250.337V64.5909H240.246V75H237.428ZM255.8 75V72.9545L263.482 64.5455C264.383 63.5606 265.125 62.7045 265.709 61.9773C266.292 61.2424 266.724 60.553 267.004 59.9091C267.292 59.2576 267.436 58.5758 267.436 57.8636C267.436 57.0455 267.239 56.3371 266.845 55.7386C266.459 55.1402 265.929 54.678 265.254 54.3523C264.58 54.0265 263.822 53.8636 262.982 53.8636C262.088 53.8636 261.307 54.0492 260.641 54.4205C259.982 54.7841 259.47 55.2955 259.107 55.9545C258.75 56.6136 258.572 57.3864 258.572 58.2727H255.891C255.891 56.9091 256.205 55.7121 256.834 54.6818C257.463 53.6515 258.319 52.8485 259.402 52.2727C260.493 51.697 261.716 51.4091 263.072 51.4091C264.436 51.4091 265.644 51.697 266.697 52.2727C267.75 52.8485 268.576 53.625 269.175 54.6023C269.773 55.5795 270.072 56.6667 270.072 57.8636C270.072 58.7197 269.917 59.5568 269.607 60.375C269.304 61.1856 268.773 62.0909 268.016 63.0909C267.266 64.0833 266.224 65.2955 264.891 66.7273L259.663 72.3182V72.5H270.482V75H255.8ZM275.584 75V51.7273H289.629V54.2273H278.402V62.0909H288.902V64.5909H278.402V72.5H289.811V75H275.584ZM194.987 114V111.955L202.669 103.545C203.571 102.561 204.313 101.705 204.896 100.977C205.48 100.242 205.911 99.553 206.192 98.9091C206.48 98.2576 206.624 97.5758 206.624 96.8636C206.624 96.0455 206.427 95.3371 206.033 94.7386C205.646 94.1402 205.116 93.678 204.442 93.3523C203.768 93.0265 203.01 92.8636 202.169 92.8636C201.275 92.8636 200.495 93.0492 199.828 93.4205C199.169 93.7841 198.658 94.2955 198.294 94.9545C197.938 95.6136 197.76 96.3864 197.76 97.2727H195.078C195.078 95.9091 195.393 94.7121 196.021 93.6818C196.65 92.6515 197.506 91.8485 198.589 91.2727C199.68 90.697 200.904 90.4091 202.26 90.4091C203.624 90.4091 204.832 90.697 205.885 91.2727C206.938 91.8485 207.764 92.625 208.362 93.6023C208.961 94.5795 209.26 95.6667 209.26 96.8636C209.26 97.7197 209.105 98.5568 208.794 99.375C208.491 100.186 207.961 101.091 207.203 102.091C206.453 103.083 205.411 104.295 204.078 105.727L198.851 111.318V111.5H209.669V114H194.987ZM221.635 114.318C220.302 114.318 219.101 114.053 218.033 113.523C216.964 112.992 216.108 112.265 215.464 111.341C214.821 110.417 214.468 109.364 214.408 108.182H217.135C217.241 109.235 217.718 110.106 218.567 110.795C219.423 111.477 220.446 111.818 221.635 111.818C222.589 111.818 223.438 111.595 224.18 111.148C224.93 110.701 225.518 110.087 225.942 109.307C226.374 108.519 226.589 107.629 226.589 106.636C226.589 105.621 226.366 104.716 225.919 103.92C225.48 103.117 224.874 102.485 224.101 102.023C223.328 101.561 222.446 101.326 221.453 101.318C220.741 101.311 220.01 101.42 219.26 101.648C218.51 101.867 217.893 102.152 217.408 102.5L214.771 102.182L216.18 90.7273H228.271V93.2273H218.544L217.726 100.091H217.862C218.339 99.7121 218.938 99.3977 219.658 99.1477C220.377 98.8977 221.127 98.7727 221.908 98.7727C223.332 98.7727 224.601 99.1136 225.714 99.7955C226.836 100.47 227.714 101.394 228.351 102.568C228.995 103.742 229.317 105.083 229.317 106.591C229.317 108.076 228.983 109.402 228.317 110.568C227.658 111.727 226.749 112.644 225.589 113.318C224.43 113.985 223.112 114.318 221.635 114.318ZM245.695 109.636V108.409C245.695 107.561 245.869 106.784 246.217 106.08C246.573 105.367 247.089 104.799 247.763 104.375C248.445 103.943 249.27 103.727 250.24 103.727C251.225 103.727 252.051 103.943 252.717 104.375C253.384 104.799 253.888 105.367 254.229 106.08C254.57 106.784 254.74 107.561 254.74 108.409V109.636C254.74 110.485 254.566 111.265 254.217 111.977C253.876 112.682 253.369 113.25 252.695 113.682C252.028 114.106 251.21 114.318 250.24 114.318C249.255 114.318 248.426 114.106 247.751 113.682C247.077 113.25 246.566 112.682 246.217 111.977C245.869 111.265 245.695 110.485 245.695 109.636ZM248.013 108.409V109.636C248.013 110.341 248.179 110.973 248.513 111.534C248.846 112.087 249.422 112.364 250.24 112.364C251.036 112.364 251.596 112.087 251.922 111.534C252.255 110.973 252.422 110.341 252.422 109.636V108.409C252.422 107.705 252.263 107.076 251.945 106.523C251.626 105.962 251.058 105.682 250.24 105.682C249.445 105.682 248.873 105.962 248.524 106.523C248.183 107.076 248.013 107.705 248.013 108.409ZM234.104 96.3182V95.0909C234.104 94.2424 234.278 93.4659 234.626 92.7614C234.982 92.0492 235.498 91.4811 236.172 91.0568C236.854 90.625 237.679 90.4091 238.649 90.4091C239.634 90.4091 240.46 90.625 241.126 91.0568C241.793 91.4811 242.297 92.0492 242.638 92.7614C242.979 93.4659 243.149 94.2424 243.149 95.0909V96.3182C243.149 97.1667 242.975 97.947 242.626 98.6591C242.286 99.3636 241.778 99.9318 241.104 100.364C240.437 100.788 239.619 101 238.649 101C237.664 101 236.835 100.788 236.161 100.364C235.486 99.9318 234.975 99.3636 234.626 98.6591C234.278 97.947 234.104 97.1667 234.104 96.3182ZM236.422 95.0909V96.3182C236.422 97.0227 236.589 97.6553 236.922 98.2159C237.255 98.7689 237.831 99.0455 238.649 99.0455C239.445 99.0455 240.005 98.7689 240.331 98.2159C240.664 97.6553 240.831 97.0227 240.831 96.3182V95.0909C240.831 94.3864 240.672 93.7576 240.354 93.2045C240.036 92.6439 239.467 92.3636 238.649 92.3636C237.854 92.3636 237.282 92.6439 236.933 93.2045C236.592 93.7576 236.422 94.3864 236.422 95.0909ZM234.967 114L250.967 90.7273H253.558L237.558 114H234.967Z" fill="black"/>
<path d="M319.136 87L322.955 63.7273H325.227L321.409 87H319.136ZM308.545 80.5455L308.909 78.2727H326.273L325.909 80.5455H308.545ZM310.955 87L314.773 63.7273H317.045L313.227 87H310.955ZM309.909 72.4545L310.273 70.1818H327.636L327.273 72.4545H309.909ZM338.051 87.3182C336.491 87.3182 335.112 87.0417 333.915 86.4886C332.725 85.928 331.797 85.1591 331.131 84.1818C330.464 83.197 330.134 82.0758 330.142 80.8182C330.134 79.8333 330.328 78.9242 330.722 78.0909C331.116 77.25 331.653 76.5492 332.335 75.9886C333.025 75.4205 333.794 75.0606 334.642 74.9091V74.7727C333.528 74.4848 332.642 73.8598 331.983 72.8977C331.324 71.928 330.998 70.8258 331.006 69.5909C330.998 68.4091 331.297 67.3523 331.903 66.4205C332.509 65.4886 333.343 64.7538 334.403 64.2159C335.472 63.678 336.688 63.4091 338.051 63.4091C339.4 63.4091 340.604 63.678 341.665 64.2159C342.725 64.7538 343.559 65.4886 344.165 66.4205C344.778 67.3523 345.089 68.4091 345.097 69.5909C345.089 70.8258 344.752 71.928 344.085 72.8977C343.426 73.8598 342.551 74.4848 341.46 74.7727V74.9091C342.301 75.0606 343.059 75.4205 343.733 75.9886C344.407 76.5492 344.945 77.25 345.347 78.0909C345.748 78.9242 345.953 79.8333 345.96 80.8182C345.953 82.0758 345.612 83.197 344.938 84.1818C344.271 85.1591 343.343 85.928 342.153 86.4886C340.972 87.0417 339.604 87.3182 338.051 87.3182ZM338.051 84.8182C339.104 84.8182 340.013 84.6477 340.778 84.3068C341.544 83.9659 342.134 83.4848 342.551 82.8636C342.968 82.2424 343.18 81.5152 343.188 80.6818C343.18 79.803 342.953 79.0265 342.506 78.3523C342.059 77.678 341.449 77.1477 340.676 76.7614C339.911 76.375 339.036 76.1818 338.051 76.1818C337.059 76.1818 336.172 76.375 335.392 76.7614C334.619 77.1477 334.009 77.678 333.562 78.3523C333.123 79.0265 332.907 79.803 332.915 80.6818C332.907 81.5152 333.108 82.2424 333.517 82.8636C333.934 83.4848 334.528 83.9659 335.301 84.3068C336.074 84.6477 336.991 84.8182 338.051 84.8182ZM338.051 73.7727C338.884 73.7727 339.623 73.6061 340.267 73.2727C340.919 72.9394 341.43 72.4735 341.801 71.875C342.172 71.2765 342.362 70.5758 342.369 69.7727C342.362 68.9848 342.176 68.2992 341.812 67.7159C341.449 67.125 340.945 66.6705 340.301 66.3523C339.657 66.0265 338.907 65.8636 338.051 65.8636C337.18 65.8636 336.419 66.0265 335.767 66.3523C335.116 66.6705 334.612 67.125 334.256 67.7159C333.9 68.2992 333.725 68.9848 333.733 69.7727C333.725 70.5758 333.903 71.2765 334.267 71.875C334.638 72.4735 335.15 72.9394 335.801 73.2727C336.453 73.6061 337.203 73.7727 338.051 73.7727ZM358.179 87.3182C356.679 87.3182 355.342 87.0606 354.168 86.5455C353.001 86.0303 352.073 85.3144 351.384 84.3977C350.702 83.4735 350.33 82.4015 350.27 81.1818H353.134C353.194 81.9318 353.452 82.5795 353.906 83.125C354.361 83.6629 354.955 84.0795 355.69 84.375C356.425 84.6705 357.24 84.8182 358.134 84.8182C359.134 84.8182 360.02 84.6439 360.793 84.2955C361.565 83.947 362.171 83.4621 362.611 82.8409C363.05 82.2197 363.27 81.5 363.27 80.6818C363.27 79.8258 363.058 79.072 362.634 78.4205C362.209 77.7614 361.588 77.2462 360.77 76.875C359.952 76.5038 358.952 76.3182 357.77 76.3182H355.906V73.8182H357.77C358.694 73.8182 359.505 73.6515 360.202 73.3182C360.906 72.9848 361.455 72.5152 361.849 71.9091C362.251 71.303 362.452 70.5909 362.452 69.7727C362.452 68.9848 362.277 68.2992 361.929 67.7159C361.58 67.1326 361.088 66.678 360.452 66.3523C359.823 66.0265 359.08 65.8636 358.224 65.8636C357.421 65.8636 356.664 66.0114 355.952 66.3068C355.247 66.5947 354.671 67.0152 354.224 67.5682C353.777 68.1136 353.535 68.7727 353.497 69.5455H350.77C350.815 68.3258 351.183 67.2576 351.872 66.3409C352.562 65.4167 353.463 64.697 354.577 64.1818C355.698 63.6667 356.929 63.4091 358.27 63.4091C359.709 63.4091 360.944 63.7008 361.974 64.2841C363.005 64.8598 363.796 65.6212 364.349 66.5682C364.902 67.5152 365.179 68.5379 365.179 69.6364C365.179 70.947 364.834 72.0644 364.145 72.9886C363.463 73.9129 362.535 74.553 361.361 74.9091V75.0909C362.83 75.3333 363.978 75.9583 364.804 76.9659C365.63 77.9659 366.043 79.2045 366.043 80.6818C366.043 81.947 365.698 83.0833 365.009 84.0909C364.327 85.0909 363.395 85.8788 362.213 86.4545C361.031 87.0303 359.687 87.3182 358.179 87.3182ZM378.145 87.3182C376.584 87.3182 375.205 87.0417 374.009 86.4886C372.819 85.928 371.891 85.1591 371.224 84.1818C370.558 83.197 370.228 82.0758 370.236 80.8182C370.228 79.8333 370.421 78.9242 370.815 78.0909C371.209 77.25 371.747 76.5492 372.429 75.9886C373.118 75.4205 373.887 75.0606 374.736 74.9091V74.7727C373.622 74.4848 372.736 73.8598 372.077 72.8977C371.418 71.928 371.092 70.8258 371.099 69.5909C371.092 68.4091 371.391 67.3523 371.997 66.4205C372.603 65.4886 373.437 64.7538 374.497 64.2159C375.565 63.678 376.781 63.4091 378.145 63.4091C379.493 63.4091 380.698 63.678 381.759 64.2159C382.819 64.7538 383.652 65.4886 384.259 66.4205C384.872 67.3523 385.183 68.4091 385.19 69.5909C385.183 70.8258 384.846 71.928 384.179 72.8977C383.52 73.8598 382.645 74.4848 381.554 74.7727V74.9091C382.395 75.0606 383.152 75.4205 383.827 75.9886C384.501 76.5492 385.039 77.25 385.44 78.0909C385.842 78.9242 386.046 79.8333 386.054 80.8182C386.046 82.0758 385.705 83.197 385.031 84.1818C384.365 85.1591 383.437 85.928 382.247 86.4886C381.065 87.0417 379.698 87.3182 378.145 87.3182ZM378.145 84.8182C379.198 84.8182 380.107 84.6477 380.872 84.3068C381.637 83.9659 382.228 83.4848 382.645 82.8636C383.062 82.2424 383.274 81.5152 383.281 80.6818C383.274 79.803 383.046 79.0265 382.599 78.3523C382.152 77.678 381.543 77.1477 380.77 76.7614C380.005 76.375 379.13 76.1818 378.145 76.1818C377.152 76.1818 376.266 76.375 375.486 76.7614C374.713 77.1477 374.103 77.678 373.656 78.3523C373.217 79.0265 373.001 79.803 373.009 80.6818C373.001 81.5152 373.202 82.2424 373.611 82.8636C374.027 83.4848 374.622 83.9659 375.395 84.3068C376.168 84.6477 377.084 84.8182 378.145 84.8182ZM378.145 73.7727C378.978 73.7727 379.717 73.6061 380.361 73.2727C381.012 72.9394 381.524 72.4735 381.895 71.875C382.266 71.2765 382.455 70.5758 382.463 69.7727C382.455 68.9848 382.27 68.2992 381.906 67.7159C381.543 67.125 381.039 66.6705 380.395 66.3523C379.751 66.0265 379.001 65.8636 378.145 65.8636C377.274 65.8636 376.512 66.0265 375.861 66.3523C375.209 66.6705 374.705 67.125 374.349 67.7159C373.993 68.2992 373.819 68.9848 373.827 69.7727C373.819 70.5758 373.997 71.2765 374.361 71.875C374.732 72.4735 375.243 72.9394 375.895 73.2727C376.546 73.6061 377.296 73.7727 378.145 73.7727ZM398.273 87.3182C396.773 87.3182 395.436 87.0606 394.261 86.5455C393.095 86.0303 392.167 85.3144 391.477 84.3977C390.795 83.4735 390.424 82.4015 390.364 81.1818H393.227C393.288 81.9318 393.545 82.5795 394 83.125C394.455 83.6629 395.049 84.0795 395.784 84.375C396.519 84.6705 397.333 84.8182 398.227 84.8182C399.227 84.8182 400.114 84.6439 400.886 84.2955C401.659 83.947 402.265 83.4621 402.705 82.8409C403.144 82.2197 403.364 81.5 403.364 80.6818C403.364 79.8258 403.152 79.072 402.727 78.4205C402.303 77.7614 401.682 77.2462 400.864 76.875C400.045 76.5038 399.045 76.3182 397.864 76.3182H396V73.8182H397.864C398.788 73.8182 399.598 73.6515 400.295 73.3182C401 72.9848 401.549 72.5152 401.943 71.9091C402.345 71.303 402.545 70.5909 402.545 69.7727C402.545 68.9848 402.371 68.2992 402.023 67.7159C401.674 67.1326 401.182 66.678 400.545 66.3523C399.917 66.0265 399.174 65.8636 398.318 65.8636C397.515 65.8636 396.758 66.0114 396.045 66.3068C395.341 66.5947 394.765 67.0152 394.318 67.5682C393.871 68.1136 393.629 68.7727 393.591 69.5455H390.864C390.909 68.3258 391.277 67.2576 391.966 66.3409C392.655 65.4167 393.557 64.697 394.67 64.1818C395.792 63.6667 397.023 63.4091 398.364 63.4091C399.803 63.4091 401.038 63.7008 402.068 64.2841C403.098 64.8598 403.89 65.6212 404.443 66.5682C404.996 67.5152 405.273 68.5379 405.273 69.6364C405.273 70.947 404.928 72.0644 404.239 72.9886C403.557 73.9129 402.629 74.553 401.455 74.9091V75.0909C402.924 75.3333 404.072 75.9583 404.898 76.9659C405.723 77.9659 406.136 79.2045 406.136 80.6818C406.136 81.947 405.792 83.0833 405.102 84.0909C404.42 85.0909 403.489 85.8788 402.307 86.4545C401.125 87.0303 399.78 87.3182 398.273 87.3182ZM418.239 87.3182C416.678 87.3182 415.299 87.0417 414.102 86.4886C412.913 85.928 411.985 85.1591 411.318 84.1818C410.652 83.197 410.322 82.0758 410.33 80.8182C410.322 79.8333 410.515 78.9242 410.909 78.0909C411.303 77.25 411.841 76.5492 412.523 75.9886C413.212 75.4205 413.981 75.0606 414.83 74.9091V74.7727C413.716 74.4848 412.83 73.8598 412.17 72.8977C411.511 71.928 411.186 70.8258 411.193 69.5909C411.186 68.4091 411.485 67.3523 412.091 66.4205C412.697 65.4886 413.53 64.7538 414.591 64.2159C415.659 63.678 416.875 63.4091 418.239 63.4091C419.587 63.4091 420.792 63.678 421.852 64.2159C422.913 64.7538 423.746 65.4886 424.352 66.4205C424.966 67.3523 425.277 68.4091 425.284 69.5909C425.277 70.8258 424.939 71.928 424.273 72.8977C423.614 73.8598 422.739 74.4848 421.648 74.7727V74.9091C422.489 75.0606 423.246 75.4205 423.92 75.9886C424.595 76.5492 425.133 77.25 425.534 78.0909C425.936 78.9242 426.14 79.8333 426.148 80.8182C426.14 82.0758 425.799 83.197 425.125 84.1818C424.458 85.1591 423.53 85.928 422.341 86.4886C421.159 87.0417 419.792 87.3182 418.239 87.3182ZM418.239 84.8182C419.292 84.8182 420.201 84.6477 420.966 84.3068C421.731 83.9659 422.322 83.4848 422.739 82.8636C423.155 82.2424 423.367 81.5152 423.375 80.6818C423.367 79.803 423.14 79.0265 422.693 78.3523C422.246 77.678 421.636 77.1477 420.864 76.7614C420.098 76.375 419.223 76.1818 418.239 76.1818C417.246 76.1818 416.36 76.375 415.58 76.7614C414.807 77.1477 414.197 77.678 413.75 78.3523C413.311 79.0265 413.095 79.803 413.102 80.6818C413.095 81.5152 413.295 82.2424 413.705 82.8636C414.121 83.4848 414.716 83.9659 415.489 84.3068C416.261 84.6477 417.178 84.8182 418.239 84.8182ZM418.239 73.7727C419.072 73.7727 419.811 73.6061 420.455 73.2727C421.106 72.9394 421.617 72.4735 421.989 71.875C422.36 71.2765 422.549 70.5758 422.557 69.7727C422.549 68.9848 422.364 68.2992 422 67.7159C421.636 67.125 421.133 66.6705 420.489 66.3523C419.845 66.0265 419.095 65.8636 418.239 65.8636C417.367 65.8636 416.606 66.0265 415.955 66.3523C415.303 66.6705 414.799 67.125 414.443 67.7159C414.087 68.2992 413.913 68.9848 413.92 69.7727C413.913 70.5758 414.091 71.2765 414.455 71.875C414.826 72.4735 415.337 72.9394 415.989 73.2727C416.64 73.6061 417.39 73.7727 418.239 73.7727ZM438.366 87.3182C436.866 87.3182 435.529 87.0606 434.355 86.5455C433.188 86.0303 432.26 85.3144 431.571 84.3977C430.889 83.4735 430.518 82.4015 430.457 81.1818H433.321C433.382 81.9318 433.639 82.5795 434.094 83.125C434.548 83.6629 435.143 84.0795 435.878 84.375C436.613 84.6705 437.427 84.8182 438.321 84.8182C439.321 84.8182 440.207 84.6439 440.98 84.2955C441.753 83.947 442.359 83.4621 442.798 82.8409C443.238 82.2197 443.457 81.5 443.457 80.6818C443.457 79.8258 443.245 79.072 442.821 78.4205C442.397 77.7614 441.776 77.2462 440.957 76.875C440.139 76.5038 439.139 76.3182 437.957 76.3182H436.094V73.8182H437.957C438.882 73.8182 439.692 73.6515 440.389 73.3182C441.094 72.9848 441.643 72.5152 442.037 71.9091C442.438 71.303 442.639 70.5909 442.639 69.7727C442.639 68.9848 442.465 68.2992 442.116 67.7159C441.768 67.1326 441.276 66.678 440.639 66.3523C440.01 66.0265 439.268 65.8636 438.412 65.8636C437.609 65.8636 436.851 66.0114 436.139 66.3068C435.435 66.5947 434.859 67.0152 434.412 67.5682C433.965 68.1136 433.723 68.7727 433.685 69.5455H430.957C431.003 68.3258 431.37 67.2576 432.06 66.3409C432.749 65.4167 433.651 64.697 434.764 64.1818C435.885 63.6667 437.116 63.4091 438.457 63.4091C439.897 63.4091 441.132 63.7008 442.162 64.2841C443.192 64.8598 443.984 65.6212 444.537 66.5682C445.09 67.5152 445.366 68.5379 445.366 69.6364C445.366 70.947 445.022 72.0644 444.332 72.9886C443.651 73.9129 442.723 74.553 441.548 74.9091V75.0909C443.018 75.3333 444.166 75.9583 444.991 76.9659C445.817 77.9659 446.23 79.2045 446.23 80.6818C446.23 81.947 445.885 83.0833 445.196 84.0909C444.514 85.0909 443.582 85.8788 442.401 86.4545C441.219 87.0303 439.874 87.3182 438.366 87.3182Z" fill="black"/>
<path d="M469.136 87L472.955 63.7273H475.227L471.409 87H469.136ZM458.545 80.5455L458.909 78.2727H476.273L475.909 80.5455H458.545ZM460.955 87L464.773 63.7273H467.045L463.227 87H460.955ZM459.909 72.4545L460.273 70.1818H477.636L477.273 72.4545H459.909ZM481.006 87V63.7273H494.96V66.2273H483.824V74.0909H493.915V76.5909H483.824V87H481.006ZM499.787 87V63.7273H513.741V66.2273H502.605V74.0909H512.696V76.5909H502.605V87H499.787ZM518.568 87V63.7273H532.523V66.2273H521.386V74.0909H531.477V76.5909H521.386V87H518.568ZM537.349 87V63.7273H551.304V66.2273H540.168V74.0909H550.259V76.5909H540.168V87H537.349ZM556.131 87V63.7273H570.085V66.2273H558.949V74.0909H569.04V76.5909H558.949V87H556.131ZM574.912 87V63.7273H588.866V66.2273H577.73V74.0909H587.821V76.5909H577.73V87H574.912Z" fill="black"/>
</svg>
